<?xml version="1.0" encoding="UTF-8" standalone="no"?>
<svg
   xmlns:dc="http://purl.org/dc/elements/1.1/"
   xmlns:cc="http://creativecommons.org/ns#"
   xmlns:rdf="http://www.w3.org/1999/02/22-rdf-syntax-ns#"
   xmlns:svg="http://www.w3.org/2000/svg"
   xmlns="http://www.w3.org/2000/svg"
   xmlns:sodipodi="http://sodipodi.sourceforge.net/DTD/sodipodi-0.dtd"
   xmlns:inkscape="http://www.inkscape.org/namespaces/inkscape"
   width="24"
   height="41"
   viewBox="0 0 24 41"
   fill="none"
   version="1.1"
   id="svg909"
   sodipodi:docname="arrow-right-disabled.svg"
   inkscape:version="1.0.2 (e86c870879, 2021-01-15)">
  <metadata
     id="metadata915">
    <rdf:RDF>
      <cc:Work
         rdf:about="">
        <dc:format>image/svg+xml</dc:format>
        <dc:type
           rdf:resource="http://purl.org/dc/dcmitype/StillImage" />
        <dc:title></dc:title>
      </cc:Work>
    </rdf:RDF>
  </metadata>
  <defs
     id="defs913" />
  <sodipodi:namedview
     pagecolor="#ffffff"
     bordercolor="#666666"
     borderopacity="1"
     objecttolerance="10"
     gridtolerance="10"
     guidetolerance="10"
     inkscape:pageopacity="0"
     inkscape:pageshadow="2"
     inkscape:window-width="1686"
     inkscape:window-height="1055"
     id="namedview911"
     showgrid="false"
     inkscape:zoom="6.4038766"
     inkscape:cx="0.042775163"
     inkscape:cy="19.826932"
     inkscape:window-x="470"
     inkscape:window-y="21"
     inkscape:window-maximized="1"
     inkscape:current-layer="svg909" />
  <path
     d="m 23.222211,22.8617 c 0.47087,-0.4703 0.735703,-1.1083 0.736289,-1.7738 v -1.2718 c -0.0077,-0.664 -0.271479,-1.2995 -0.736289,-1.7738 L 6.019761,0.873403 c -0.3142,-0.316793 -0.7419,-0.494985 -1.1881,-0.494985 -0.4461,0 -0.8739,0.178192 -1.1881,0.494985 l -2.3762,2.376207 c -0.3148,0.30845 -0.4922,0.73063 -0.4922,1.17137 0,0.44073 0.1774,0.86292 0.4922,1.17137 L 16.160521,20.452 1.267361,35.3117 c -0.3168,0.3142 -0.4949,0.7419 -0.4949,1.1881 0,0.4462 0.1781,0.8739 0.4949,1.1881 l 2.3762,2.3427 c 0.3142,0.3168 0.742,0.495 1.1881,0.495 0.4462,0 0.8739,-0.1782 1.1881,-0.495 z"
     fill="#bcbcbc"
     id="path907" />
</svg>
