<?xml version="1.0" encoding="UTF-8" standalone="no"?>
<svg
   xmlns:dc="http://purl.org/dc/elements/1.1/"
   xmlns:cc="http://creativecommons.org/ns#"
   xmlns:rdf="http://www.w3.org/1999/02/22-rdf-syntax-ns#"
   xmlns:svg="http://www.w3.org/2000/svg"
   xmlns="http://www.w3.org/2000/svg"
   xmlns:sodipodi="http://sodipodi.sourceforge.net/DTD/sodipodi-0.dtd"
   xmlns:inkscape="http://www.inkscape.org/namespaces/inkscape"
   width="24"
   height="41"
   viewBox="0 0 24 41"
   fill="none"
   version="1.1"
   id="svg919"
   sodipodi:docname="arrow-left.svg"
   inkscape:version="1.0.2 (e86c870879, 2021-01-15)">
  <metadata
     id="metadata925">
    <rdf:RDF>
      <cc:Work
         rdf:about="">
        <dc:format>image/svg+xml</dc:format>
        <dc:type
           rdf:resource="http://purl.org/dc/dcmitype/StillImage" />
        <dc:title></dc:title>
      </cc:Work>
    </rdf:RDF>
  </metadata>
  <defs
     id="defs923" />
  <sodipodi:namedview
     pagecolor="#ffffff"
     bordercolor="#666666"
     borderopacity="1"
     objecttolerance="10"
     gridtolerance="10"
     guidetolerance="10"
     inkscape:pageopacity="0"
     inkscape:pageshadow="2"
     inkscape:window-width="1916"
     inkscape:window-height="1055"
     id="namedview921"
     showgrid="false"
     inkscape:zoom="6.8869689"
     inkscape:cx="0.15253113"
     inkscape:cy="28.544941"
     inkscape:window-x="240"
     inkscape:window-y="21"
     inkscape:window-maximized="0"
     inkscape:current-layer="svg919" />
  <path
     d="m 1.100016,22.5702 c -0.4709,-0.4703 -0.7357,-1.1083 -0.7363,-1.7738 v -1.2718 c 0.0077,-0.664 0.2715,-1.2995 0.7363,-1.7738 L 18.302406,0.581899 c 0.3142,-0.316793 0.74191,-0.4949849 1.1881,-0.4949849 0.44619,0 0.8739,0.1781919 1.1881,0.4949849 l 2.37621,2.376211 c 0.314812,0.30845 0.492214,0.73063 0.492214,1.17137 0,0.44073 -0.177402,0.86291 -0.492214,1.17137 l -14.8931,14.85965 14.8931,14.8597 c 0.316794,0.3142 0.494984,0.7419 0.494984,1.1881 0,0.4462 -0.17819,0.8739 -0.494984,1.1881 l -2.37621,2.3427 c -0.3142,0.3168 -0.74191,0.495 -1.1881,0.495 -0.44619,0 -0.8739,-0.1782 -1.1881,-0.495 z"
     fill="#144372"
     id="path917" />
</svg>
