<svg width="24" height="41" viewBox="0 0 24 41" fill="none" xmlns="http://www.w3.org/2000/svg">
<path d="M22.8135 22.5702C23.2844 22.0999 23.5492 21.4619 23.5498 20.7964V19.5246C23.5421 18.8606 23.2783 18.2251 22.8135 17.7508L5.61111 0.581899C5.29691 0.265106 4.8692 0.0869141 4.42301 0.0869141C3.97682 0.0869141 3.54911 0.265106 3.23491 0.581899L0.8587 2.95811C0.543888 3.26656 0.366486 3.68874 0.366486 4.12948C0.366486 4.57021 0.543888 4.99239 0.8587 5.30085L15.7518 20.1605L0.8587 35.0202C0.541906 35.3344 0.363716 35.7621 0.363716 36.2083C0.363716 36.6545 0.541906 37.0822 0.8587 37.3964L3.23491 39.7391C3.54911 40.0559 3.97682 40.2341 4.42301 40.2341C4.8692 40.2341 5.29691 40.0559 5.61111 39.7391L22.8135 22.5702Z" fill="#144372"/>
</svg>
