<?xml version="1.0" encoding="UTF-8" standalone="no"?>
<svg
   xmlns:dc="http://purl.org/dc/elements/1.1/"
   xmlns:cc="http://creativecommons.org/ns#"
   xmlns:rdf="http://www.w3.org/1999/02/22-rdf-syntax-ns#"
   xmlns:svg="http://www.w3.org/2000/svg"
   xmlns="http://www.w3.org/2000/svg"
   xmlns:sodipodi="http://sodipodi.sourceforge.net/DTD/sodipodi-0.dtd"
   xmlns:inkscape="http://www.inkscape.org/namespaces/inkscape"
   width="24"
   height="41"
   viewBox="0 0 24 41"
   fill="none"
   version="1.1"
   id="svg909"
   sodipodi:docname="arrow-left-disabled.svg"
   inkscape:version="1.0.2 (e86c870879, 2021-01-15)">
  <metadata
     id="metadata915">
    <rdf:RDF>
      <cc:Work
         rdf:about="">
        <dc:format>image/svg+xml</dc:format>
        <dc:type
           rdf:resource="http://purl.org/dc/dcmitype/StillImage" />
        <dc:title></dc:title>
      </cc:Work>
    </rdf:RDF>
  </metadata>
  <defs
     id="defs913" />
  <sodipodi:namedview
     pagecolor="#ffffff"
     bordercolor="#666666"
     borderopacity="1"
     objecttolerance="10"
     gridtolerance="10"
     guidetolerance="10"
     inkscape:pageopacity="0"
     inkscape:pageshadow="2"
     inkscape:window-width="937"
     inkscape:window-height="1055"
     id="namedview911"
     showgrid="false"
     inkscape:zoom="20.04878"
     inkscape:cx="12"
     inkscape:cy="18.246672"
     inkscape:window-x="1219"
     inkscape:window-y="21"
     inkscape:window-maximized="1"
     inkscape:current-layer="svg909" />
  <path
     d="M1.50875 22.8617C1.03788 22.3914 0.773047 21.7534 0.772461 21.0879V19.8161C0.780172 19.1521 1.04394 18.5166 1.50875 18.0423L18.7112 0.873403C19.0254 0.55661 19.4531 0.378418 19.8993 0.378418C20.3454 0.378418 20.7732 0.55661 21.0874 0.873403L23.4636 3.24961C23.7784 3.55806 23.9558 3.98024 23.9558 4.42098C23.9558 4.86171 23.7784 5.2839 23.4636 5.59235L8.57044 20.452L23.4636 35.3117C23.7804 35.6259 23.9585 36.0536 23.9585 36.4998C23.9585 36.946 23.7804 37.3737 23.4636 37.6879L21.0874 40.0306C20.7732 40.3474 20.3454 40.5256 19.8993 40.5256C19.4531 40.5256 19.0254 40.3474 18.7112 40.0306L1.50875 22.8617Z"
     fill="#BCBCBC"
     id="path907" />
</svg>
