<svg width="160" height="32" viewBox="0 0 160 32" fill="none" xmlns="http://www.w3.org/2000/svg">
<g clip-path="url(#clip0)">
<path d="M10.0695 6.07553H0V0.0732422H22.8045V6.07553H17.3363V31.9124H10.0695V6.07553Z" fill="#23BFD6"/>
<path d="M56.3431 20.6316V31.9124H49.0402V20.5439L36.8397 0.0732422H44.5688L52.9986 14.2199L61.3995 0.0732422H68.5508L56.3431 20.6316Z" fill="#144372"/>
<path d="M42.1563 8.96335C42.5482 9.79323 42.7413 10.705 42.7197 11.6245C42.7197 15.0826 40.4732 17.1297 36.0235 17.1297H30.0858V6.07553H36.0235C38.8262 6.07553 40.7549 6.88704 41.8023 8.36385L36.8398 0.0732422H22.8046V31.9124H30.0858V23.1393H36.428C41.5856 23.1393 45.5585 21.4797 47.8556 18.5553L42.1563 8.96335Z" fill="#14B485"/>
<path d="M77.5585 1.41122H74.8569V0.117188H81.7626V1.41122H79.0682V8.35662H77.5585V1.41122Z" fill="#144372"/>
<path d="M89.0076 7.06989V8.35662H82.9038V0.117188H88.8487V1.40391H84.4207V3.53871H88.3503V4.8035H84.4207V7.06989H89.0076Z" fill="#144372"/>
<path d="M92.2005 7.92549C91.5527 7.57602 91.0128 7.05233 90.6402 6.41213C90.2572 5.74716 90.0623 4.9884 90.0768 4.21884C90.0731 3.4672 90.2732 2.72894 90.6553 2.08441C91.0374 1.43987 91.5868 0.913774 92.2438 0.563371C92.9157 0.194045 93.668 0.000532884 94.4326 0.000428323C95.0588 -0.00811547 95.6804 0.111238 96.2601 0.351354C96.798 0.576494 97.2758 0.927218 97.6542 1.37489L96.6791 2.30338C96.4057 1.99676 96.0712 1.75223 95.6977 1.5859C95.3242 1.41956 94.9201 1.33519 94.512 1.33833C93.9879 1.33045 93.4706 1.45883 93.0095 1.71119C92.5786 1.95276 92.2213 2.3093 91.9766 2.74203C91.7314 3.18917 91.6045 3.69284 91.6082 4.20422C91.5988 4.72787 91.7259 5.24478 91.9766 5.70296C92.2213 6.13569 92.5786 6.49223 93.0095 6.73381C93.4725 6.98034 93.9889 7.10599 94.512 7.09935C94.9211 7.1049 95.3266 7.02089 95.7006 6.85306C96.0746 6.68523 96.4084 6.43755 96.6791 6.127L97.6542 7.0628C97.2758 7.51372 96.7949 7.86495 96.2529 8.08633C95.6037 8.35187 94.9056 8.47236 94.2062 8.43955C93.5068 8.40674 92.8226 8.22142 92.2005 7.89625V7.92549Z" fill="#144372"/>
<path d="M106.337 0.117188V8.35662H104.827V4.82543H100.616V8.35662H99.1061V0.117188H100.616V3.51678H104.827V0.117188H106.337Z" fill="#144372"/>
<path d="M115.756 0.117188V8.35662H114.514L110.021 2.77837V8.35662H108.525V0.117188H109.797L114.282 5.69544V0.117188H115.756Z" fill="#144372"/>
<path d="M119.498 7.92528C118.846 7.57553 118.303 7.04897 117.93 6.4046C117.541 5.74187 117.344 4.98203 117.36 4.21132C117.346 3.44084 117.543 2.68152 117.93 2.01803C118.312 1.39347 118.854 0.885532 119.498 0.548534C120.192 0.188032 120.961 0 121.741 0C122.521 0 123.29 0.188032 123.984 0.548534C124.634 0.897539 125.176 1.42118 125.551 2.0619C125.94 2.72463 126.138 3.48447 126.122 4.25518C126.138 5.02585 125.94 5.78558 125.551 6.44846C125.176 7.08918 124.634 7.61283 123.984 7.96183C123.29 8.32233 122.521 8.51036 121.741 8.51036C120.961 8.51036 120.192 8.32233 119.498 7.96183V7.92528ZM123.204 6.76284C123.64 6.52253 124 6.16274 124.244 5.72468C124.489 5.27738 124.619 4.77423 124.619 4.26249C124.621 3.75046 124.491 3.24675 124.244 2.8003C124.004 2.36423 123.649 2.00464 123.218 1.76215C122.768 1.5177 122.266 1.38976 121.755 1.38976C121.245 1.38976 120.742 1.5177 120.293 1.76215C119.863 2.00649 119.508 2.36563 119.267 2.8003C119.021 3.24732 118.894 3.75108 118.898 4.26249C118.897 4.77363 119.023 5.27682 119.267 5.72468C119.508 6.15936 119.863 6.5185 120.293 6.76284C120.744 7.00297 121.246 7.12844 121.755 7.12844C122.265 7.12844 122.767 7.00297 123.218 6.76284H123.204Z" fill="#144372"/>
<path d="M127.725 0.117188H129.242V7.06258H133.497V8.35662H127.718L127.725 0.117188Z" fill="#144372"/>
<path d="M136.098 7.92528C135.446 7.57553 134.903 7.04897 134.53 6.4046C134.141 5.74187 133.943 4.98203 133.959 4.21132C133.945 3.44084 134.143 2.68152 134.53 2.01803C134.911 1.39347 135.453 0.885532 136.098 0.548534C136.792 0.188032 137.56 0 138.34 0C139.12 0 139.889 0.188032 140.583 0.548534C141.235 0.89738 141.78 1.4209 142.158 2.0619C142.541 2.72672 142.736 3.48558 142.721 4.25518C142.736 5.02474 142.541 5.7835 142.158 6.44846C141.78 7.08946 141.235 7.61298 140.583 7.96183C139.889 8.32233 139.12 8.51036 138.34 8.51036C137.56 8.51036 136.792 8.32233 136.098 7.96183V7.92528ZM139.803 6.76284C140.246 6.52708 140.613 6.16652 140.858 5.72468C141.103 5.27738 141.233 4.77423 141.233 4.26249C141.235 3.75046 141.106 3.24675 140.858 2.8003C140.62 2.36254 140.265 2.0024 139.832 1.76215C139.387 1.52399 138.891 1.3995 138.387 1.3995C137.884 1.3995 137.388 1.52399 136.943 1.76215C136.513 2.00649 136.158 2.36563 135.917 2.8003C135.671 3.24732 135.545 3.75108 135.549 4.26249C135.547 4.77363 135.674 5.27682 135.917 5.72468C136.158 6.15936 136.513 6.5185 136.943 6.76284C137.389 6.9968 137.885 7.1189 138.387 7.1189C138.89 7.1189 139.386 6.9968 139.832 6.76284H139.803Z" fill="#144372"/>
<path d="M149.887 4.13831H151.332V7.42093C150.901 7.76868 150.412 8.0338 149.887 8.2032C149.331 8.38066 148.751 8.47186 148.168 8.4737C147.385 8.48572 146.613 8.29709 145.921 7.92538C145.271 7.57638 144.729 7.05273 144.354 6.41202C143.965 5.74913 143.768 4.9894 143.783 4.21873C143.767 3.44802 143.965 2.68818 144.354 2.02545C144.731 1.39824 145.271 0.887503 145.914 0.548639C146.604 0.180189 147.374 -0.00827565 148.153 0.000318223C148.788 -0.00693094 149.419 0.109735 150.01 0.343933C150.565 0.549086 151.062 0.890755 151.455 1.33822L150.465 2.28133C150.175 1.97741 149.827 1.73689 149.442 1.57466C149.057 1.41244 148.643 1.33196 148.226 1.33822C147.693 1.32918 147.167 1.45483 146.694 1.70377C146.258 1.93996 145.895 2.29436 145.647 2.7273C145.39 3.18587 145.26 3.70624 145.271 4.23335C145.268 4.74564 145.397 5.24986 145.647 5.69554C145.897 6.1313 146.259 6.49015 146.694 6.7337C147.16 6.98696 147.682 7.11532 148.211 7.10656C148.797 7.12005 149.376 6.97358 149.887 6.68252V4.13831Z" fill="#144372"/>
<path d="M156.814 5.44687V8.37124H155.305V5.4688L152.105 0.117188H153.723L156.107 4.1309L158.512 0.117188H160L156.814 5.44687Z" fill="#144372"/>
<path d="M81.098 12.2393C81.5886 12.4464 82.0063 12.7979 82.2971 13.2482C82.5861 13.7165 82.7318 14.2609 82.716 14.8128C82.7308 15.3623 82.5851 15.904 82.2971 16.37C82.0072 16.8246 81.5896 17.181 81.098 17.3935C80.5146 17.6384 79.8874 17.7579 79.256 17.7445H77.414V20.1205H75.9043V11.8811H79.256C79.8882 11.8662 80.5162 11.9884 81.098 12.2393ZM80.6862 16.0264C80.8584 15.8782 80.9939 15.6913 81.0817 15.4805C81.1695 15.2697 81.2073 15.041 81.1919 14.8128C81.2073 14.5846 81.1695 14.3559 81.0817 14.1451C80.9939 13.9343 80.8584 13.7473 80.6862 13.5992C80.2471 13.2902 79.7175 13.1408 79.1838 13.1751H77.414V16.4504H79.1838C79.7175 16.4848 80.2471 16.3353 80.6862 16.0264Z" fill="#144372"/>
<path d="M89.1015 18.2121H85.0275L84.2257 20.1203H82.6726L86.3349 11.8809H87.8229L91.4925 20.1203H89.9105L89.1015 18.2121ZM88.6031 17.0131L87.0645 13.4162L85.5403 17.0131H88.6031Z" fill="#144372"/>
<path d="M97.618 20.1205L95.9566 17.7079H95.646H93.8112V20.1059H92.2943V11.8811H95.646C96.2782 11.8662 96.9063 11.9884 97.488 12.2393C97.9786 12.4464 98.3964 12.7979 98.6871 13.2482C98.9761 13.7165 99.1219 14.2609 99.1061 14.8128C99.1238 15.3805 98.9673 15.9398 98.6582 16.4139C98.3455 16.8743 97.8985 17.2245 97.3796 17.4155L99.2505 20.1205H97.618ZM97.0763 13.5992C96.6371 13.2902 96.1075 13.1408 95.5738 13.1751H93.8112V16.4577H95.5738C96.1079 16.4956 96.6386 16.3459 97.0763 16.0337C97.2477 15.883 97.3831 15.6947 97.4719 15.4832C97.5608 15.2716 97.6009 15.0423 97.5891 14.8128C97.6036 14.584 97.5648 14.3549 97.4757 14.1441C97.3866 13.9332 97.2498 13.7466 97.0763 13.5992Z" fill="#144372"/>
<path d="M103.361 16.669L102.075 18.0142V20.1198H100.558V11.8803H102.075V16.0841L106.091 11.8584H107.789L104.372 15.5139L107.984 20.0686H106.221L103.361 16.669Z" fill="#144372"/>
<path d="M79.4149 28.981V31.9054H77.9052V29.003L74.7052 23.6514H76.3233L78.707 27.6578L81.1124 23.6514H82.6005L79.4149 28.981Z" fill="#144372"/>
<path d="M88.6609 24.0026C89.1535 24.2095 89.5736 24.5609 89.8673 25.0115C90.1415 25.4862 90.286 26.0261 90.286 26.576C90.286 27.1259 90.1415 27.6659 89.8673 28.1406C89.574 28.5933 89.154 28.9471 88.6609 29.1568C88.078 29.4031 87.4505 29.5227 86.819 29.5077H84.9842V31.8838H83.4745V23.6516H86.819C87.4505 23.6367 88.078 23.7563 88.6609 24.0026ZM88.2492 27.7823C88.4227 27.6349 88.5596 27.4482 88.6486 27.2374C88.7377 27.0266 88.7766 26.7975 88.7621 26.5687C88.7754 26.3411 88.736 26.1135 88.647 25.904C88.5579 25.6945 88.4217 25.5091 88.2492 25.3624C87.8148 25.0491 87.2859 24.8991 86.7539 24.9384H84.9842V28.2064H86.7539C87.2859 28.2456 87.8148 28.0956 88.2492 27.7823Z" fill="#144372"/>
<path d="M97.8997 30.6041V31.8835H91.7959V23.6514H97.7336V24.9308H93.3056V27.051H97.2352V28.3084H93.3056V30.5821L97.8997 30.6041Z" fill="#144372"/>
<path d="M106.655 23.6514V31.8835H105.412L100.919 26.3199V31.8981H99.4238V23.6514H100.666L105.152 29.2442V23.6514H106.655Z" fill="#144372"/>
<path d="M115.677 28.3527C115.945 28.7282 116.083 29.1835 116.067 29.6468C116.082 29.9701 116.015 30.2918 115.874 30.582C115.732 30.8722 115.52 31.1214 115.258 31.3064C114.542 31.7375 113.713 31.9388 112.881 31.8839H108.836V23.6518H112.686C113.468 23.6028 114.246 23.8022 114.911 24.2221C115.159 24.3978 115.36 24.6338 115.495 24.9084C115.63 25.183 115.695 25.4874 115.684 25.7939C115.689 26.1729 115.595 26.5464 115.41 26.8759C115.229 27.1888 114.963 27.4425 114.644 27.607C115.054 27.7457 115.414 28.0054 115.677 28.3527ZM110.346 24.8581V27.1245H112.513C112.936 27.1517 113.358 27.0526 113.726 26.8394C113.864 26.749 113.975 26.6239 114.05 26.4764C114.125 26.3289 114.16 26.1642 114.153 25.9986C114.161 25.8309 114.126 25.664 114.051 25.5141C113.976 25.3642 113.864 25.2365 113.726 25.1432C113.358 24.93 112.936 24.8309 112.513 24.8581H110.346ZM114.543 29.5006C114.543 28.711 113.958 28.3162 112.787 28.3162H110.346V30.7069H112.787C113.958 30.7069 114.543 30.2901 114.543 29.4933V29.5006Z" fill="#144372"/>
<path d="M118.14 31.0427C117.808 30.6722 117.553 30.2379 117.391 29.7656C117.228 29.2934 117.161 28.7928 117.194 28.2938V23.6514H118.711V28.2353C118.711 29.8535 119.399 30.6626 120.776 30.6626C122.154 30.6626 122.84 29.8535 122.835 28.2353V23.6514H124.323V28.2938C124.357 28.7923 124.291 29.2925 124.129 29.7648C123.968 30.237 123.715 30.6716 123.384 31.0427C122.647 31.6623 121.72 32.0014 120.762 32.0014C119.804 32.0014 118.877 31.6623 118.14 31.0427Z" fill="#144372"/>
<path d="M131.344 31.8838L129.683 29.4711H129.365H127.53V31.8691H126.021V23.6516H129.365C129.997 23.6367 130.624 23.7563 131.207 24.0026C131.7 24.2095 132.12 24.5609 132.414 25.0115C132.697 25.4897 132.846 26.0367 132.846 26.5943C132.846 27.1518 132.697 27.6989 132.414 28.1771C132.098 28.6378 131.649 28.9878 131.128 29.1787L132.999 31.8838H131.344ZM130.795 25.3697C130.361 25.0564 129.832 24.9064 129.3 24.9457H127.53V28.2283H129.3C129.833 28.2654 130.362 28.1128 130.795 27.7969C130.967 27.6466 131.103 27.4584 131.192 27.2467C131.281 27.0351 131.321 26.8056 131.308 26.576C131.322 26.3484 131.282 26.1208 131.193 25.9113C131.104 25.7019 130.968 25.5164 130.795 25.3697Z" fill="#144372"/>
<path d="M139.652 27.6727H141.096V30.9553C140.667 31.3029 140.177 31.5658 139.652 31.7303C139.096 31.9108 138.516 32.0021 137.932 32.0008C137.139 32.0133 136.355 31.8195 135.657 31.4379C135.012 31.1056 134.469 30.5997 134.089 29.9757C133.709 29.3088 133.509 28.5524 133.509 27.7824C133.509 27.0124 133.709 26.256 134.089 25.5891C134.465 24.9464 135.011 24.4224 135.664 24.0757C136.362 23.7095 137.139 23.5236 137.925 23.5347C138.56 23.5252 139.19 23.6393 139.782 23.871C140.336 24.0828 140.831 24.4263 141.226 24.8726L140.273 25.8158C139.977 25.5013 139.618 25.2534 139.221 25.0884C138.824 24.9234 138.397 24.8449 137.968 24.858C137.438 24.849 136.914 24.9746 136.444 25.2236C136.006 25.4575 135.643 25.8124 135.397 26.2471C135.155 26.72 135.045 27.2509 135.079 27.7824C135.076 28.2947 135.205 28.7989 135.455 29.2446C135.703 29.6797 136.065 30.0366 136.502 30.2754C136.966 30.536 137.489 30.6672 138.019 30.6556C138.603 30.6703 139.18 30.5237 139.688 30.2316L139.652 27.6727Z" fill="#144372"/>
</g>
<defs>
<clipPath id="clip0">
<rect width="160" height="32" fill="white"/>
</clipPath>
</defs>
</svg>
