<svg width="288" height="57" viewBox="0 0 288 57" fill="none" xmlns="http://www.w3.org/2000/svg">
<g clip-path="url(#clip0)">
<path d="M18.1251 10.8218H0V0.130249H41.0481V10.8218H31.2054V56.8438H18.1251V10.8218Z" fill="#23BFD6"/>
<path d="M101.418 36.7499V56.8438H88.2723V36.5936L66.3115 0.130249H80.2239L95.3976 25.329L110.519 0.130249H123.391L101.418 36.7499Z" fill="white"/>
<path d="M75.8811 15.9658C76.5867 17.444 76.9341 19.068 76.8953 20.706C76.8953 26.8657 72.8516 30.512 64.8422 30.512H54.1544V10.8218H64.8422C69.8871 10.8218 73.3587 12.2673 75.244 14.8979L66.3115 0.130249H41.0481V56.8438H54.1544V41.2166H65.5704C74.854 41.2166 82.0052 38.2605 86.1399 33.0514L75.8811 15.9658Z" fill="#14B485"/>
<path d="M139.605 2.51338H134.742V0.208374H147.173V2.51338H142.323V14.8849H139.605V2.51338Z" fill="white"/>
<path d="M160.214 12.5929V14.8849H149.227V0.208374H159.928V2.50035H151.957V6.30296H159.031V8.55587H151.957V12.5929H160.214Z" fill="white"/>
<path d="M165.961 14.1165C164.795 13.4941 163.823 12.5612 163.152 11.4209C162.463 10.2364 162.112 8.88485 162.138 7.51408C162.131 6.17523 162.492 4.86019 163.179 3.71212C163.867 2.56404 164.856 1.62693 166.039 1.00277C167.248 0.34491 168.602 0.000216778 169.978 3.05293e-05C171.106 -0.0151881 172.225 0.19741 173.268 0.625116C174.236 1.02615 175.096 1.65087 175.777 2.44828L174.022 4.10216C173.53 3.556 172.928 3.12043 172.256 2.82415C171.583 2.52786 170.856 2.37757 170.121 2.38317C169.178 2.36912 168.247 2.5978 167.417 3.04732C166.641 3.47763 165.998 4.11271 165.558 4.88351C165.116 5.67998 164.888 6.57714 164.895 7.48804C164.878 8.42079 165.106 9.34153 165.558 10.1577C165.998 10.9285 166.641 11.5636 167.417 11.9939C168.25 12.433 169.18 12.6568 170.121 12.645C170.858 12.6549 171.588 12.5052 172.261 12.2063C172.934 11.9073 173.535 11.4662 174.022 10.913L175.777 12.5799C175.096 13.3831 174.231 14.0087 173.255 14.403C172.087 14.876 170.83 15.0907 169.571 15.0322C168.312 14.9738 167.081 14.6437 165.961 14.0645V14.1165Z" fill="white"/>
<path d="M191.406 0.208374V14.8849H188.689V8.59494H181.108V14.8849H178.391V0.208374H181.108V6.26389H188.689V0.208374H191.406Z" fill="white"/>
<path d="M208.361 0.208374V14.8849H206.125L198.037 4.94861V14.8849H195.346V0.208374H197.634L205.709 10.1446V0.208374H208.361Z" fill="white"/>
<path d="M215.096 14.1165C213.923 13.4935 212.946 12.5556 212.275 11.4078C211.575 10.2273 211.219 8.87387 211.248 7.50104C211.222 6.12863 211.578 4.77609 212.275 3.59426C212.961 2.48175 213.936 1.57699 215.096 0.97671C216.346 0.334566 217.729 -0.000366211 219.134 -0.000366211C220.538 -0.000366211 221.922 0.334566 223.171 0.97671C224.341 1.59837 225.317 2.53111 225.992 3.67239C226.693 4.85288 227.048 6.20635 227.019 7.57918C227.048 8.95192 226.692 10.3052 225.992 11.486C225.317 12.6272 224.341 13.56 223.171 14.1816C221.922 14.8238 220.538 15.1587 219.134 15.1587C217.729 15.1587 216.346 14.8238 215.096 14.1816V14.1165ZM221.766 12.0459C222.552 11.6179 223.201 10.977 223.639 10.1967C224.081 9.39996 224.314 8.50373 224.315 7.5922C224.318 6.68015 224.085 5.78291 223.639 4.98768C223.208 4.21092 222.568 3.5704 221.793 3.13846C220.983 2.70304 220.078 2.47515 219.16 2.47515C218.241 2.47515 217.336 2.70304 216.527 3.13846C215.754 3.57369 215.115 4.2134 214.68 4.98768C214.238 5.78392 214.01 6.68124 214.017 7.5922C214.014 8.50266 214.242 9.39896 214.68 10.1967C215.115 10.971 215.754 11.6107 216.527 12.0459C217.339 12.4737 218.242 12.6972 219.16 12.6972C220.077 12.6972 220.981 12.4737 221.793 12.0459H221.766Z" fill="white"/>
<path d="M229.906 0.208374H232.636V12.5799H240.295V14.8849H229.893L229.906 0.208374Z" fill="white"/>
<path d="M244.976 14.1165C243.802 13.4935 242.825 12.5556 242.154 11.4078C241.454 10.2273 241.098 8.87387 241.127 7.50104C241.101 6.12863 241.457 4.77609 242.154 3.59426C242.84 2.48175 243.816 1.57699 244.976 0.97671C246.225 0.334566 247.609 -0.000366211 249.013 -0.000366211C250.417 -0.000366211 251.801 0.334566 253.05 0.97671C254.224 1.59809 255.204 2.53062 255.884 3.67239C256.574 4.8566 256.925 6.20833 256.899 7.57918C256.925 8.94995 256.574 10.3015 255.884 11.486C255.204 12.6277 254.224 13.5603 253.05 14.1816C251.801 14.8238 250.417 15.1587 249.013 15.1587C247.609 15.1587 246.225 14.8238 244.976 14.1816V14.1165ZM251.646 12.0459C252.443 11.626 253.103 10.9837 253.544 10.1967C253.986 9.39996 254.219 8.50373 254.22 7.5922C254.223 6.68015 253.99 5.78291 253.544 4.98768C253.117 4.20791 252.476 3.5664 251.698 3.13846C250.896 2.71425 250.004 2.4925 249.097 2.4925C248.191 2.4925 247.298 2.71425 246.497 3.13846C245.724 3.57369 245.085 4.2134 244.651 4.98768C244.209 5.78392 243.98 6.68124 243.987 7.5922C243.984 8.50266 244.212 9.39896 244.651 10.1967C245.085 10.971 245.724 11.6107 246.497 12.0459C247.3 12.4627 248.192 12.6802 249.097 12.6802C250.002 12.6802 250.894 12.4627 251.698 12.0459H251.646Z" fill="white"/>
<path d="M269.797 7.37088H272.397V13.218C271.623 13.8375 270.741 14.3097 269.797 14.6115C268.796 14.9276 267.752 15.09 266.702 15.0933C265.294 15.1147 263.903 14.7787 262.659 14.1166C261.489 13.4949 260.512 12.5622 259.837 11.4209C259.138 10.2402 258.782 8.88687 258.81 7.51413C258.781 6.1413 259.137 4.78783 259.837 3.60734C260.516 2.49012 261.487 1.58038 262.646 0.976775C263.887 0.320473 265.273 -0.0152293 266.676 7.85528e-05C267.819 -0.012834 268.954 0.194977 270.018 0.612142C271.018 0.977571 271.911 1.58617 272.618 2.38322L270.837 4.06314C270.316 3.52177 269.689 3.09334 268.996 2.80438C268.302 2.51542 267.557 2.37207 266.806 2.38322C265.848 2.36711 264.9 2.59092 264.05 3.03435C263.265 3.45506 262.612 4.08633 262.165 4.85752C261.702 5.67434 261.468 6.60126 261.488 7.54017C261.482 8.45268 261.715 9.35082 262.165 10.1447C262.614 10.9209 263.266 11.5601 264.05 11.9939C264.889 12.445 265.829 12.6737 266.78 12.6581C267.835 12.6821 268.877 12.4212 269.797 11.9028V7.37088Z" fill="white"/>
<path d="M282.266 9.70186V14.9109H279.548V9.74093L273.788 0.208374H276.701L280.992 7.35779L285.321 0.208374H288L282.266 9.70186Z" fill="white"/>
<path d="M145.976 21.7999C146.859 22.1687 147.611 22.7948 148.135 23.5971C148.655 24.4312 148.917 25.4008 148.889 26.3839C148.915 27.3627 148.653 28.3276 148.135 29.1577C147.613 29.9674 146.861 30.6024 145.976 30.9809C144.926 31.417 143.797 31.6299 142.661 31.606H139.345V35.8383H136.628V21.1618H142.661C143.799 21.1354 144.929 21.3529 145.976 21.7999ZM145.235 28.5456C145.545 28.2817 145.789 27.9487 145.947 27.5732C146.105 27.1978 146.173 26.7904 146.145 26.3839C146.173 25.9774 146.105 25.57 145.947 25.1946C145.789 24.8191 145.545 24.486 145.235 24.2221C144.445 23.6719 143.491 23.4057 142.531 23.4668H139.345V29.301H142.531C143.491 29.3621 144.445 29.0959 145.235 28.5456Z" fill="white"/>
<path d="M160.383 32.4393H153.05L151.606 35.8382H148.811L155.403 21.1617H158.082L164.687 35.8382H161.839L160.383 32.4393ZM159.486 30.3036L156.716 23.8965L153.973 30.3036H159.486Z" fill="white"/>
<path d="M175.713 35.8383L172.722 31.5409H172.163H168.86V35.8123H166.13V21.1618H172.163C173.301 21.1354 174.431 21.3529 175.479 21.7999C176.362 22.1687 177.114 22.7948 177.637 23.5971C178.157 24.4312 178.419 25.4008 178.391 26.3839C178.423 27.3951 178.141 28.3914 177.585 29.2358C177.022 30.0561 176.217 30.6798 175.283 31.0199L178.651 35.8383H175.713ZM174.737 24.2221C173.947 23.6719 172.994 23.4057 172.033 23.4668H168.86V29.314H172.033C172.994 29.3815 173.95 29.1147 174.737 28.5587C175.046 28.2902 175.29 27.9548 175.45 27.578C175.61 27.2012 175.682 26.7928 175.661 26.3839C175.687 25.9763 175.617 25.5683 175.456 25.1927C175.296 24.8172 175.05 24.4847 174.737 24.2221Z" fill="white"/>
<path d="M186.049 29.6916L183.735 32.0877V35.8382H181.004V21.1617H183.735V28.6498L190.964 21.1227H194.02L187.87 27.634L194.371 35.7471H191.198L186.049 29.6916Z" fill="white"/>
<path d="M142.947 51.6217V56.8307H140.229V51.6607L134.469 42.1282H137.382L141.673 49.2646L146.002 42.1282H148.681L142.947 51.6217Z" fill="white"/>
<path d="M159.59 42.7533C160.476 43.1219 161.233 43.7478 161.761 44.5504C162.255 45.396 162.515 46.3578 162.515 47.3372C162.515 48.3167 162.255 49.2785 161.761 50.1241C161.233 50.9305 160.477 51.5607 159.59 51.9342C158.54 52.373 157.411 52.586 156.274 52.5593H152.972V56.7917H150.254V42.1282H156.274C157.411 42.1016 158.54 42.3145 159.59 42.7533ZM158.849 49.486C159.161 49.2234 159.407 48.8909 159.568 48.5154C159.728 48.1399 159.798 47.7318 159.772 47.3242C159.796 46.9188 159.725 46.5133 159.565 46.1402C159.404 45.7671 159.159 45.4368 158.849 45.1755C158.067 44.6174 157.115 44.3503 156.157 44.4202H152.972V50.2413H156.157C157.115 50.3112 158.067 50.044 158.849 49.486Z" fill="white"/>
<path d="M176.22 54.5127V56.7916H165.233V42.1282H175.921V44.4071H167.95V48.1837H175.023V50.4236H167.95V54.4736L176.22 54.5127Z" fill="white"/>
<path d="M191.978 42.1282V56.7916H189.742L181.655 46.8814V56.8177H178.963V42.1282H181.2L189.274 52.0905V42.1282H191.978Z" fill="white"/>
<path d="M208.218 50.5017C208.702 51.1705 208.949 51.9816 208.92 52.8067C208.947 53.3826 208.827 53.9557 208.572 54.4726C208.318 54.9896 207.936 55.4335 207.464 55.7629C206.175 56.5308 204.683 56.8895 203.186 56.7917H195.905V42.1282H202.835C204.243 42.0409 205.643 42.396 206.84 43.144C207.287 43.457 207.648 43.8773 207.892 44.3664C208.135 44.8555 208.251 45.3979 208.231 45.9438C208.241 46.6189 208.07 47.2843 207.737 47.8712C207.412 48.4284 206.933 48.8804 206.359 49.1734C207.097 49.4205 207.745 49.8831 208.218 50.5017ZM198.622 44.2769V48.3139H202.523C203.285 48.3624 204.045 48.1858 204.708 47.8061C204.955 47.6451 205.155 47.4222 205.29 47.1595C205.425 46.8968 205.488 46.6034 205.475 46.3085C205.489 46.0098 205.426 45.7125 205.291 45.4455C205.157 45.1784 204.956 44.9508 204.708 44.7848C204.045 44.405 203.285 44.2284 202.523 44.2769H198.622ZM206.177 52.5463C206.177 51.1398 205.124 50.4366 203.017 50.4366H198.622V54.695H203.017C205.124 54.695 206.177 53.9527 206.177 52.5333V52.5463Z" fill="white"/>
<path d="M212.652 55.294C212.055 54.634 211.596 53.8603 211.303 53.0192C211.011 52.178 210.89 51.2864 210.949 50.3975V42.1282H213.679V50.2934C213.679 53.1757 214.919 54.6169 217.398 54.6169C219.877 54.6169 221.112 53.1757 221.103 50.2934V42.1282H223.782V50.3975C223.842 51.2855 223.723 52.1765 223.433 53.0177C223.143 53.8588 222.687 54.6329 222.092 55.294C220.766 56.3976 219.096 57.0017 217.372 57.0017C215.648 57.0017 213.978 56.3976 212.652 55.294Z" fill="white"/>
<path d="M236.42 56.7917L233.43 52.4942H232.857H229.555V56.7656H226.837V42.1282H232.857C233.994 42.1016 235.124 42.3145 236.173 42.7533C237.06 43.1219 237.816 43.7478 238.344 44.5504C238.854 45.4022 239.124 46.3767 239.124 47.3698C239.124 48.363 238.854 49.3374 238.344 50.1892C237.776 51.0097 236.967 51.6332 236.03 51.9733L239.398 56.7917H236.42ZM235.432 45.1885C234.65 44.6305 233.698 44.3633 232.74 44.4332H229.555V50.2804H232.74C233.7 50.3465 234.652 50.0747 235.432 49.512C235.741 49.2442 235.985 48.9089 236.145 48.5319C236.305 48.155 236.377 47.7463 236.355 47.3372C236.379 46.9318 236.308 46.5263 236.148 46.1532C235.988 45.7802 235.742 45.4498 235.432 45.1885Z" fill="white"/>
<path d="M251.373 49.2906H253.973V55.1378C253.2 55.7569 252.318 56.2251 251.373 56.5182C250.373 56.8397 249.328 57.0023 248.278 57C246.85 57.0223 245.439 56.677 244.182 55.9973C243.021 55.4055 242.044 54.5043 241.361 53.3927C240.676 52.2049 240.316 50.8575 240.316 49.486C240.316 48.1144 240.676 46.767 241.361 45.5792C242.037 44.4344 243.019 43.501 244.195 42.8835C245.452 42.2311 246.85 41.9 248.265 41.9198C249.407 41.9028 250.542 42.1061 251.607 42.5189C252.604 42.896 253.496 43.5079 254.207 44.303L252.491 45.9829C251.958 45.4227 251.313 44.9813 250.598 44.6873C249.884 44.3934 249.115 44.2536 248.343 44.2769C247.389 44.2608 246.445 44.4846 245.6 44.928C244.812 45.3447 244.158 45.977 243.714 46.7512C243.279 47.5936 243.081 48.5392 243.142 49.486C243.136 50.3985 243.369 51.2966 243.818 52.0905C244.265 52.8656 244.918 53.5013 245.704 53.9267C246.538 54.3908 247.48 54.6245 248.434 54.6039C249.485 54.6301 250.524 54.369 251.438 53.8485L251.373 49.2906Z" fill="white"/>
</g>
<defs>
<clipPath id="clip0">
<rect width="288" height="57" fill="white"/>
</clipPath>
</defs>
</svg>
