<?xml version="1.0" standalone="no"?>
<!DOCTYPE svg PUBLIC "-//W3C//DTD SVG 20010904//EN"
 "http://www.w3.org/TR/2001/REC-SVG-20010904/DTD/svg10.dtd">
<svg version="1.0" xmlns="http://www.w3.org/2000/svg"
 width="257.000000pt" height="257.000000pt" viewBox="0 0 257.000000 257.000000"
 preserveAspectRatio="xMidYMid meet">
<metadata>
Created by potrace 1.11, written by Peter Selinger 2001-2013
</metadata>
<g transform="translate(0.000000,257.000000) scale(0.100000,-0.100000)"
fill="#000000" stroke="none">
<path d="M3 1771 c0 -72 4 -111 11 -114 6 -1 90 -3 187 -3 l176 1 1 -455 c0
-250 1 -465 1 -477 1 -21 5 -22 136 -22 122 -1 135 1 136 16 0 10 1 225 2 478
l2 460 100 0 100 0 1 -465 c1 -256 2 -471 3 -478 1 -10 30 -13 134 -10 l132 3
2 115 c1 63 2 136 2 161 l1 47 168 -1 c140 0 179 4 245 22 98 27 147 52 202
102 l43 40 21 -30 c20 -28 22 -42 22 -244 l0 -215 138 -1 139 -1 1 212 c2 208
2 212 28 257 15 25 32 53 38 61 7 8 24 35 37 60 14 25 89 151 168 280 154 255
180 298 180 305 0 3 -60 5 -133 5 l-132 0 -85 -141 c-47 -78 -92 -153 -100
-168 -43 -75 -123 -201 -129 -201 -3 0 -26 35 -51 77 -25 42 -55 92 -66 112
-12 20 -60 99 -106 176 l-86 140 -835 3 -835 2 1 -109z m1454 -130 c104 -29
157 -124 133 -238 -13 -59 -40 -93 -100 -124 -41 -22 -61 -24 -202 -28 -155
-3 -158 -3 -159 18 0 12 0 50 0 86 0 36 0 118 0 183 l1 118 143 -1 c78 -1 161
-7 184 -14z"/>
</g>
</svg>
