<?xml version="1.0" encoding="UTF-8"?>
<svg width="114px" height="24px" viewBox="0 0 114 24" version="1.1" xmlns="http://www.w3.org/2000/svg" xmlns:xlink="http://www.w3.org/1999/xlink">
    <!-- Generator: Sketch 62 (91390) - https://sketch.com -->
    <title>chapter8-logo-blue</title>
    <desc>Created with Sketch.</desc>
    <defs>
        <linearGradient x1="100%" y1="85.5926432%" x2="1.58625422%" y2="15.5365364%" id="linearGradient-1">
            <stop stop-color="#FF1A1A" offset="0%"></stop>
            <stop stop-color="#FF9898" offset="100%"></stop>
        </linearGradient>
        <linearGradient x1="25.3658949%" y1="45.6936101%" x2="50%" y2="54.3063899%" id="linearGradient-2">
            <stop stop-color="#A323CE" offset="0%"></stop>
            <stop stop-color="#8D1FC0" offset="100%"></stop>
        </linearGradient>
    </defs>
    <g id="Symbols" stroke="none" stroke-width="1" fill="none" fill-rule="evenodd">
        <g id="Header" transform="translate(0.000000, -15.000000)">
            <g id="chapter8" transform="translate(0.000000, 6.000000)">
                <g transform="translate(0.000000, 9.000000)" id="Chapter-8">
                    <g transform="translate(0.927623, 0.864240)">
                        <path d="M8.56830835,18.2351178 C9.64239829,18.2351178 10.6269807,18.0723769 11.5220557,17.7468951 C12.4171306,17.4214133 13.1982869,16.9494647 13.8655246,16.3310493 C14.5327623,15.7126338 15.0698073,14.9640257 15.4766595,14.0852248 C15.8835118,13.206424 16.1357602,12.2218415 16.2334047,11.1314775 L12.5229122,11.1314775 C12.3764454,12.303212 11.9736617,13.2471092 11.314561,13.9631692 C10.6554604,14.6792291 9.74004283,15.0372591 8.56830835,15.0372591 C7.70578158,15.0372591 6.97344754,14.8704497 6.37130621,14.5368308 C5.76916488,14.203212 5.28094218,13.759743 4.90663812,13.206424 C4.53233405,12.6531049 4.25974304,12.030621 4.0888651,11.3389722 C3.91798715,10.6473233 3.83254818,9.93533191 3.83254818,9.20299786 C3.83254818,8.43811563 3.91798715,7.69764454 4.0888651,6.98158458 C4.25974304,6.26552463 4.53233405,5.6267666 4.90663812,5.06531049 C5.28094218,4.50385439 5.76916488,4.05631692 6.37130621,3.72269807 C6.97344754,3.38907923 7.70578158,3.22226981 8.56830835,3.22226981 C9.04025696,3.22226981 9.49186296,3.29957173 9.92312634,3.45417559 C10.3543897,3.60877944 10.7408994,3.82441113 11.0826552,4.10107066 C11.4244111,4.37773019 11.7092077,4.69914347 11.937045,5.06531049 C12.1648822,5.43147752 12.311349,5.83426124 12.3764454,6.27366167 L16.0869379,6.27366167 C15.9730193,5.26466809 15.6963597,4.36959315 15.2569593,3.58843683 C14.8175589,2.80728051 14.2601713,2.15224839 13.5847966,1.62334047 C12.9094218,1.09443255 12.1445396,0.691648822 11.2901499,0.414989293 C10.4357602,0.138329764 9.52847966,1.77635684e-15 8.56830835,1.77635684e-15 C7.23383298,1.77635684e-15 6.03361884,0.235974304 4.96766595,0.707922912 C3.90171306,1.17987152 3.00256959,1.83083512 2.27023555,2.6608137 C1.5379015,3.49079229 0.976445396,4.46316916 0.585867238,5.57794433 C0.195289079,6.69271949 7.81597009e-14,7.90107066 7.81597009e-14,9.20299786 C7.81597009e-14,10.4723769 0.195289079,11.6563169 0.585867238,12.754818 C0.976445396,13.8533191 1.5379015,14.8094218 2.27023555,15.6231263 C3.00256959,16.4368308 3.90171306,17.0755889 4.96766595,17.5394004 C6.03361884,18.003212 7.23383298,18.2351178 8.56830835,18.2351178 Z M21.9456103,17.8445396 L21.9456103,11.2291221 C21.9456103,9.94346895 22.1571734,9.01991435 22.5802998,8.45845824 C23.0034261,7.89700214 23.6869379,7.61627409 24.6308351,7.61627409 C25.4608137,7.61627409 26.0385439,7.87259101 26.3640257,8.38522484 C26.6895075,8.89785867 26.8522484,9.67494647 26.8522484,10.7164882 L26.8522484,17.8445396 L30.3186296,17.8445396 L30.3186296,10.0817987 C30.3186296,9.3006424 30.2494647,8.58865096 30.1111349,7.94582441 C29.9728051,7.30299786 29.7327623,6.75781585 29.3910064,6.31027837 C29.0492505,5.8627409 28.5813704,5.51284797 27.9873662,5.26059957 C27.3933619,5.00835118 26.6325482,4.88222698 25.7049251,4.88222698 C25.0539615,4.88222698 24.3867238,5.0490364 23.703212,5.38265525 C23.0197002,5.71627409 22.4582441,6.24925054 22.0188437,6.98158458 L21.9456103,6.98158458 L21.9456103,0.414989293 L18.4792291,0.414989293 L18.4792291,17.8445396 L21.9456103,17.8445396 Z M36.7143469,18.1618844 C37.4955032,18.1618844 38.2603854,18.0479657 39.0089936,17.8201285 C39.7576017,17.5922912 40.4085653,17.193576 40.9618844,16.6239829 C40.9781585,16.835546 41.0066381,17.0430407 41.0473233,17.2464668 C41.0880086,17.4498929 41.1408994,17.6492505 41.2059957,17.8445396 L41.2059957,17.8445396 L44.7211991,17.8445396 C44.5584582,17.5841542 44.4445396,17.193576 44.3794433,16.6728051 C44.3143469,16.1520343 44.2817987,15.6068522 44.2817987,15.0372591 L44.2817987,15.0372591 L44.2817987,8.47066381 C44.2817987,7.70578158 44.1109208,7.09143469 43.7691649,6.62762313 C43.427409,6.16381156 42.9880086,5.80171306 42.4509636,5.54132762 C41.9139186,5.28094218 41.3199143,5.10599572 40.6689507,5.01648822 C40.0179872,4.92698073 39.3751606,4.88222698 38.7404711,4.88222698 C38.0406852,4.88222698 37.3449679,4.95139186 36.6533191,5.08972163 C35.9616702,5.22805139 35.3391863,5.45995717 34.7858672,5.78543897 C34.2325482,6.11092077 33.7768737,6.54218415 33.4188437,7.07922912 C33.0608137,7.61627409 32.8573876,8.29164882 32.8085653,9.10535332 L32.8085653,9.10535332 L36.2749465,9.10535332 C36.3400428,8.42184154 36.5678801,7.93361884 36.9584582,7.64068522 C37.3490364,7.34775161 37.8860814,7.2012848 38.5695931,7.2012848 C38.8788009,7.2012848 39.167666,7.22162741 39.4361884,7.26231263 C39.7047109,7.30299786 39.9406852,7.38436831 40.1441113,7.50642398 C40.3475375,7.62847966 40.5102784,7.7993576 40.632334,8.01905782 C40.7543897,8.23875803 40.8154176,8.53576017 40.8154176,8.91006424 C40.8316916,9.26809422 40.7259101,9.54068522 40.4980728,9.72783726 C40.2702355,9.91498929 39.9610278,10.0573876 39.5704497,10.1550321 C39.1798715,10.2526767 38.732334,10.3259101 38.2278373,10.3747323 C37.7233405,10.4235546 37.2107066,10.488651 36.6899358,10.5700214 C36.1691649,10.6513919 35.6524625,10.761242 35.1398287,10.8995717 C34.6271949,11.0379015 34.1715203,11.2453961 33.7728051,11.5220557 C33.3740899,11.7987152 33.0486081,12.1689507 32.7963597,12.6327623 C32.5441113,13.0965739 32.4179872,13.6865096 32.4179872,14.4025696 C32.4179872,15.0535332 32.5278373,15.6149893 32.7475375,16.0869379 C32.9672377,16.5588865 33.2723769,16.9494647 33.662955,17.2586724 C34.0535332,17.5678801 34.5092077,17.7957173 35.0299786,17.9421842 C35.5507495,18.088651 36.1122056,18.1618844 36.7143469,18.1618844 Z M38.008137,15.8672377 C37.7314775,15.8672377 37.462955,15.8428266 37.2025696,15.7940043 C36.9421842,15.745182 36.7143469,15.659743 36.5190578,15.5376874 C36.3237687,15.4156317 36.1691649,15.2488223 36.0552463,15.0372591 C35.9413276,14.8256959 35.8843683,14.5653105 35.8843683,14.2561028 C35.8843683,13.930621 35.9413276,13.6620985 36.0552463,13.4505353 C36.1691649,13.2389722 36.3197002,13.0640257 36.5068522,12.9256959 C36.6940043,12.7873662 36.9137045,12.6775161 37.1659529,12.5961456 C37.4182013,12.5147752 37.6745182,12.4496788 37.9349036,12.4008565 C38.2115632,12.3520343 38.4882227,12.311349 38.7648822,12.2788009 C39.0415418,12.2462527 39.3059957,12.2055675 39.5582441,12.1567452 C39.8104925,12.1079229 40.0464668,12.0468951 40.266167,11.9736617 C40.4858672,11.9004283 40.6689507,11.7987152 40.8154176,11.6685225 L40.8154176,11.6685225 L40.8154176,12.9623126 C40.8154176,13.1576017 40.7950749,13.4179872 40.7543897,13.743469 C40.7137045,14.0689507 40.6038544,14.390364 40.4248394,14.7077088 C40.2458244,15.0250535 39.9691649,15.2976445 39.5948608,15.5254818 C39.2205567,15.7533191 38.6916488,15.8672377 38.008137,15.8672377 Z M50.4334047,22.262955 L50.4334047,16.282227 L50.482227,16.282227 C50.9053533,16.9006424 51.4464668,17.3685225 52.1055675,17.6858672 C52.7646681,18.003212 53.4847966,18.1618844 54.2659529,18.1618844 C55.193576,18.1618844 56.003212,17.9828694 56.6948608,17.6248394 C57.3865096,17.2668094 57.9642398,16.7867238 58.4280514,16.1845824 C58.891863,15.5824411 59.2376874,14.8907923 59.4655246,14.109636 C59.6933619,13.3284797 59.8072805,12.5147752 59.8072805,11.6685225 C59.8072805,10.7734475 59.6933619,9.91498929 59.4655246,9.09314775 C59.2376874,8.27130621 58.8877944,7.55117773 58.4158458,6.93276231 C57.9438972,6.3143469 57.3498929,5.81798715 56.633833,5.44368308 C55.917773,5.06937901 55.0633833,4.88222698 54.0706638,4.88222698 C53.2895075,4.88222698 52.5734475,5.03683084 51.9224839,5.34603854 C51.2715203,5.65524625 50.7344754,6.151606 50.311349,6.83511777 L50.2625268,6.83511777 L50.2625268,5.22398287 L46.9670236,5.22398287 L46.9670236,22.262955 L50.4334047,22.262955 Z M53.3383298,15.5743041 C52.7850107,15.5743041 52.3130621,15.4603854 51.9224839,15.2325482 C51.5319058,15.0047109 51.2186296,14.7077088 50.9826552,14.3415418 C50.7466809,13.9753747 50.575803,13.5481799 50.4700214,13.0599572 C50.3642398,12.5717345 50.311349,12.0753747 50.311349,11.5708779 C50.311349,11.0501071 50.3601713,10.5456103 50.4578158,10.0573876 C50.5554604,9.56916488 50.7222698,9.1379015 50.9582441,8.76359743 C51.1942184,8.38929336 51.5034261,8.08415418 51.8858672,7.84817987 C52.2683084,7.61220557 52.7443255,7.49421842 53.3139186,7.49421842 C53.8672377,7.49421842 54.3351178,7.61220557 54.7175589,7.84817987 C55.1,8.08415418 55.4132762,8.39336188 55.6573876,8.775803 C55.9014989,9.15824411 56.0764454,9.59357602 56.182227,10.0817987 C56.2880086,10.5700214 56.3408994,11.0663812 56.3408994,11.5708779 C56.3408994,12.0753747 56.2920771,12.5717345 56.1944325,13.0599572 C56.096788,13.5481799 55.9299786,13.9753747 55.6940043,14.3415418 C55.45803,14.7077088 55.1488223,15.0047109 54.7663812,15.2325482 C54.38394,15.4603854 53.9079229,15.5743041 53.3383298,15.5743041 Z M66.7888651,17.9665953 C67.130621,17.9665953 67.4805139,17.9584582 67.8385439,17.9421842 C68.1965739,17.9259101 68.5220557,17.8933619 68.8149893,17.8445396 L68.8149893,15.1593148 C68.6522484,15.191863 68.4813704,15.2162741 68.3023555,15.2325482 C68.1233405,15.2488223 67.9361884,15.2569593 67.7408994,15.2569593 C67.1550321,15.2569593 66.764454,15.1593148 66.5691649,14.9640257 C66.3738758,14.7687366 66.2762313,14.3781585 66.2762313,13.7922912 L66.2762313,7.54304069 L68.8149893,7.54304069 L68.8149893,5.22398287 L66.2762313,5.22398287 L66.2762313,1.44025696 L62.8098501,1.44025696 L62.8098501,5.22398287 L60.7104925,5.22398287 L60.7104925,7.54304069 L62.8098501,7.54304069 L62.8098501,14.9884368 C62.8098501,15.6231263 62.9156317,16.1357602 63.1271949,16.5263383 C63.338758,16.9169165 63.6276231,17.2179872 63.9937901,17.4295503 C64.3599572,17.6411135 64.7830835,17.7835118 65.2631692,17.8567452 C65.7432548,17.9299786 66.2518201,17.9665953 66.7888651,17.9665953 Z M76.3092077,18.1618844 C77.7413276,18.1618844 78.9618844,17.8364026 79.9708779,17.185439 C80.9798715,16.5344754 81.7284797,15.4522484 82.2167024,13.938758 L79.1653105,13.938758 C79.0513919,14.3293362 78.7421842,14.6995717 78.2376874,15.0494647 C77.7331906,15.3993576 77.1310493,15.5743041 76.4312634,15.5743041 C75.454818,15.5743041 74.7062099,15.3220557 74.185439,14.8175589 C73.6646681,14.3130621 73.3798715,13.4993576 73.3310493,12.3764454 L82.4364026,12.3764454 C82.5014989,11.4 82.4201285,10.4642398 82.1922912,9.56916488 C81.964454,8.67408994 81.5942184,7.87665953 81.0815846,7.17687366 C80.5689507,6.47708779 79.9139186,5.91970021 79.1164882,5.50471092 C78.3190578,5.08972163 77.3832976,4.88222698 76.3092077,4.88222698 C75.3490364,4.88222698 74.4743041,5.05310493 73.6850107,5.39486081 C72.8957173,5.7366167 72.2162741,6.20449679 71.6466809,6.79850107 C71.0770878,7.39250535 70.6376874,8.09635974 70.3284797,8.91006424 C70.0192719,9.72376874 69.8646681,10.6025696 69.8646681,11.5464668 C69.8646681,12.5229122 70.0152034,13.4179872 70.3162741,14.2316916 C70.6173448,15.0453961 71.0445396,15.745182 71.5978587,16.3310493 C72.1511777,16.9169165 72.8265525,17.3685225 73.6239829,17.6858672 C74.4214133,18.003212 75.3164882,18.1618844 76.3092077,18.1618844 Z M78.9700214,10.1794433 L73.3310493,10.1794433 C73.3473233,9.93533191 73.4002141,9.65867238 73.4897216,9.34946467 C73.5792291,9.04025696 73.733833,8.74732334 73.9535332,8.47066381 C74.1732334,8.19400428 74.466167,7.9620985 74.832334,7.77494647 C75.1985011,7.58779443 75.6582441,7.49421842 76.2115632,7.49421842 C77.0578158,7.49421842 77.6884368,7.72205567 78.1034261,8.17773019 C78.5184154,8.63340471 78.8072805,9.3006424 78.9700214,10.1794433 Z M87.9533191,17.8445396 L87.9533191,12.1567452 C87.9533191,11.587152 88.0102784,11.0582441 88.124197,10.5700214 C88.2381156,10.0817987 88.4293362,9.65460385 88.6978587,9.28843683 C88.9663812,8.92226981 89.3203426,8.63340471 89.759743,8.42184154 C90.1991435,8.21027837 90.7361884,8.10449679 91.3708779,8.10449679 C91.5824411,8.10449679 91.8021413,8.11670236 92.0299786,8.14111349 C92.2578158,8.16552463 92.4531049,8.19400428 92.6158458,8.22655246 L92.6158458,5.00428266 C92.3391863,4.92291221 92.0869379,4.88222698 91.8591006,4.88222698 C91.4197002,4.88222698 90.9965739,4.94732334 90.5897216,5.07751606 C90.1828694,5.20770878 89.8004283,5.39079229 89.4423983,5.6267666 C89.0843683,5.8627409 88.7670236,6.14753747 88.490364,6.48115632 C88.2137045,6.81477516 87.9940043,7.17687366 87.8312634,7.56745182 L87.7824411,7.56745182 L87.7824411,5.22398287 L84.4869379,5.22398287 L84.4869379,17.8445396 L87.9533191,17.8445396 Z" id="Chapter" fill="#1F5DC9" fill-rule="nonzero"></path>
                        <g id="chapter8-symbol" transform="translate(99.792719, 0.414989)">
                            <g id="Group-6">
                                <path d="M6.49336188,17.7468951 C7.29079229,17.7468951 8.07194861,17.637045 8.83683084,17.4173448 C9.60171306,17.1976445 10.2852248,16.8680942 10.8873662,16.4286938 C11.4895075,15.9892934 11.9736617,15.4359743 12.3398287,14.7687366 C12.7059957,14.1014989 12.8890792,13.3122056 12.8890792,12.4008565 C12.8890792,11.3267666 12.6124197,10.4194861 12.0591006,9.67901499 C11.5057816,8.9385439 10.3073016,8.36215631 9.43664729,7.99395798 C8.56599301,7.62575965 7.65855052,7.37533302 6.44453961,7.37533302 C5.23052871,7.37533302 4.0888651,7.62575965 3.1186519,7.99395798 C2.14843869,8.36215631 1.40364026,8.95888651 0.842184154,9.69122056 C0.280728051,10.4235546 0,11.3349036 0,12.4252677 C0,13.3528908 0.183083512,14.1503212 0.549250535,14.8175589 C0.915417559,15.4847966 1.40364026,16.0381156 2.01391863,16.4775161 C2.624197,16.9169165 3.31584582,17.2383298 4.0888651,17.4417559 C4.86188437,17.645182 5.6633833,17.7468951 6.49336188,17.7468951 Z M6.49359056,15.2116243 C6.08483268,15.2116243 5.69242512,15.1434827 5.31636787,15.0071994 C4.94031062,14.870916 4.61739189,14.678516 4.34761169,14.4299994 C4.07783149,14.1814827 3.86118982,13.8808577 3.69768666,13.5281244 C3.53418351,13.1753911 3.45243194,12.7825745 3.45243194,12.3496745 C3.45243194,11.4838745 3.74673761,10.8224995 4.33534896,10.3655496 C4.9239603,9.90859958 5.64337417,9.68012459 6.49359056,9.68012459 C6.90234844,9.68012459 7.28249327,9.74425792 7.63402504,9.87252458 C7.98555682,10.0007912 8.29621281,10.1851746 8.56599301,10.4256746 C8.83577321,10.6661745 9.04832731,10.9507662 9.2036553,11.2794495 C9.3589833,11.6081328 9.43664729,11.9728912 9.43664729,12.3737245 C9.43664729,12.7905911 9.36307087,13.1753911 9.21591804,13.5281244 C9.0687652,13.8808577 8.86029868,14.1814827 8.59051848,14.4299994 C8.32073828,14.678516 8.01008229,14.870916 7.65855052,15.0071994 C7.30701874,15.1434827 6.91869875,15.2116243 6.49359056,15.2116243 Z" id="8" fill="#1F5DC9" fill-rule="nonzero"></path>
                                <path d="M9.66892769,8.87344754 C10.5609183,8.30704051 11.1262466,7.44539615 11.5412359,6.81070664 C11.9562251,6.17601713 12.1637198,5.43554604 12.1637198,4.58929336 C12.1637198,4.16616702 12.0660753,3.69014989 11.8707862,3.16124197 C11.6754971,2.63233405 11.3540838,2.1359743 10.9065463,1.67216274 C10.4590089,1.20835118 9.86907311,0.813704497 9.13673906,0.488222698 C8.40440502,0.162740899 7.50933007,0 6.45151422,0 C5.75172836,0 5.06007954,0.0976445396 4.37656776,0.292933619 C3.69305598,0.488222698 3.07870909,0.781156317 2.53352707,1.17173448 C1.98834506,1.56231263 1.54487611,2.05053533 1.20312022,2.63640257 C0.861364332,3.22226981 0.690486387,3.89764454 0.690486387,4.66252677 C0.690486387,5.50877944 0.902049556,6.24925054 1.32517589,6.88394004 C1.74830223,7.51862955 2.03514215,8.00076657 2.85835387,8.6299139 C3.68156558,9.25906122 4.88283658,9.68012459 6.24807561,9.68012459 C7.61331465,9.68012459 8.77693705,9.43985457 9.66892769,8.87344754 Z M6.45098784,7.37533302 C5.76629169,7.37533302 5.16917296,7.18428328 4.65963165,6.80218379 C4.15009033,6.42008431 3.89531967,5.86319463 3.89531967,5.13151477 C3.89531967,4.74128551 3.96299313,4.39983491 4.09834004,4.10716296 C4.23368695,3.81449102 4.42078415,3.57059773 4.65963165,3.3754831 C4.89847914,3.18036847 5.17315375,3.02996761 5.48365549,2.92428052 C5.79415723,2.81859343 6.11660135,2.76574988 6.45098784,2.76574988 C6.97645232,2.76574988 7.40239702,2.84704764 7.72882192,3.00964317 C8.05524683,3.17223869 8.31001749,3.3754831 8.4931339,3.61937639 C8.67625031,3.86326968 8.79965485,4.11935763 8.86334751,4.38764024 C8.92704018,4.65592286 8.95888651,4.90388104 8.95888651,5.13151477 C8.95888651,5.86319463 8.72003902,6.42008431 8.24234403,6.80218379 C7.76464905,7.18428328 7.16753032,7.37533302 6.45098784,7.37533302 Z" id="8" fill="url(#linearGradient-1)"></path>
                                <path d="M6.44453961,7.37533302 C7.65855052,7.37533302 8.56599301,7.62575965 9.43664729,7.99395798 C9.70690121,8.10824794 10.0087412,8.24259697 10.3130678,8.39568599 C10.1270339,8.5686821 9.92206485,8.73047101 9.69621778,8.87344754 C8.80151593,9.43985457 7.63435668,9.68012459 6.26496798,9.68012459 C4.89557928,9.68012459 3.69065701,9.25906122 2.86494313,8.6299139 C2.71391435,8.5148385 2.5808844,8.40468133 2.46172468,8.29760931 C2.66721683,8.18326413 2.88648025,8.0820677 3.1186519,7.99395798 C4.0888651,7.62575965 5.23052871,7.37533302 6.44453961,7.37533302 Z" id="Combined-Shape" fill="url(#linearGradient-2)" fill-rule="nonzero"></path>
                            </g>
                        </g>
                    </g>
                </g>
            </g>
        </g>
    </g>
</svg>