<svg version="1.1" xmlns="http://www.w3.org/2000/svg" xmlns:xlink="http://www.w3.org/1999/xlink" x="0px" y="0px" viewBox="0 0 652 113.4" style="enable-background:new 0 0 652 113.4;" xml:space="preserve"> <g id="Laag_1"> <g> <g> <path class="st0" d="M346.2,99.3V85h55.1c3.9,0,7-3.2,7-7s-3-7-9.7-7h-31c-15.5,0-24-9.6-24-21.3s9.6-21.3,21.3-21.3h52.4v14.3
 h-52.4c-3.9,0-7,3.2-7,7s3.3,7,9.7,7h31c14.2,0,24,9.6,24,21.3s-9.6,21.3-21.3,21.3H346.2z"></path> </g> <path class="st0" d="M285.6,28.3h-36.4c-11.8,0-21.3,9.6-21.3,21.3v49.7h14.3V78.1h50.5v21.2h14.3V49.7
 C306.9,37.9,297.4,28.3,285.6,28.3z M292.7,63.8h-50.5V49.7c0-3.9,3.2-7,7-7h36.4c3.9,0,7,3.2,7,7V63.8z"></path> <g> <path class="st0" d="M79.1,99.3V85H14.3V71h48.6V56.7H14.3V42.6h62.1V28.3H15.2C6.8,28.3,0,35.2,0,43.6v40.5
 c0,8.4,6.8,15.2,15.2,15.2H79.1z"></path> </g> <path class="st0" d="M521.8,28.3V78c0,3.9-3.2,7-7,7l-36.4,0c-3.9,0-7-3.2-7-7V28.3H457V78c0,11.8,9.6,21.3,21.3,21.3l36.4,0
 c11.8,0,21.3-9.6,21.3-21.3V28.3H521.8z"></path> <path class="st0" d="M587.2,99.3V49.7c0-3.9,3.2-7,7-7l36.4,0c3.9,0,7,3.2,7,7v49.7H652V49.7c0-11.8-9.6-21.3-21.3-21.3l-36.4,0
 c-11.8,0-21.3,9.6-21.3,21.3v49.7H587.2z"></path> <polygon class="st0" points="153.1,52.2 132.4,28.3 113.4,28.3 143.6,63.1 153.1,73.9 175.1,99.3 194.1,99.3 162.5,63.1        "></polygon> <linearGradient id="SVGID_1_" gradientUnits="userSpaceOnUse" x1="100.8948" y1="114.4123" x2="216.3336" y2="-1.0265"> <stop offset="0" style="stop-color:#EE3129"></stop> <stop offset="0.208" style="stop-color:#EE3629"></stop> <stop offset="0.3751" style="stop-color:#EF4129"></stop> <stop offset="0.5281" style="stop-color:#F05329"></stop> <stop offset="0.6725" style="stop-color:#F26829"></stop> <stop offset="0.811" style="stop-color:#F57F29"></stop> <stop offset="0.9433" style="stop-color:#F89928"></stop> <stop offset="1" style="stop-color:#FAA627"></stop> </linearGradient> <polygon class="st1" points="118.8,113.4 217.4,0 198.4,0 99.9,113.4         "></polygon> </g> </g> <g id="Laag_2"> </g> </svg>