<svg class="svg_logo" xmlns="http://www.w3.org/2000/svg" xml:space="preserve" height="81" viewBox="0 0 284 80.5" width="284" version="1.1" y="0px" x="0px" xmlns:xlink="http://www.w3.org/1999/xlink">

<defs>
    <clipPath id="svg_logo__mask">  
        <path d="m275.1 43.3c-2.9 2.2-6.7 3.4-10.3 3.4-10.8 0-16-8-16-16.9s5.8-16.7 15.3-16.7c4.8 0 7.8 2.3 9.7 4.4h0.1v-15.3h9.9v44.4l-8.7-3.3zm-8.7-21.6c-5.1 0-7.8 4-7.8 8.1 0 4.2 2.6 8.3 7.8 8.3 4.9 0 7.9-4 7.9-8.2 0-4.1-3-8.2-7.9-8.2z"></path>
        <path d="m211.3 45.9v-32.1h9.5v4.5h0.1c1.5-2.8 5.3-5.3 9.8-5.3 8.8 0 11.4 6.7 11.4 13.1v19.8h-9.9v-17.5c0-3.5-1-6.7-5.1-6.7-4 0-6 3.2-6 6.8v17.4h-9.8z"></path>
        <path d="m194.3 43.4c-3.4 2.1-6.9 3.3-10.5 3.3-6.4 0-12-3.3-12-9.9 0-11.1 13.5-11.3 21.7-11.3 0-3.5-2.9-5.7-6.3-5.7-3.2 0-5.9 1.5-8.1 3.8l-5.3-5.4c3.6-3.4 8.9-5.1 14.1-5.1 11.5 0 14.7 5.9 14.7 16.6v17.1l-8.3-3.4zm-3.2-11.6c-3 0-9.8 0.3-9.8 4.6 0 2.4 2.5 3.5 4.7 3.5 3.9 0 7.5-2 7.5-6v-2.1h-2.4z"></path>
        <path d="m194.3 43.4c-3.4 2.1-6.9 3.3-10.5 3.3-6.4 0-12-3.3-12-9.9 0-11.1 13.5-11.3 21.7-11.3 0-3.5-2.9-5.7-6.3-5.7-3.2 0-5.9 1.5-8.1 3.8l-5.3-5.4c3.6-3.4 8.9-5.1 14.1-5.1 11.5 0 14.7 5.9 14.7 16.6v17.1l-8.3-3.4zm-3.2-11.6c-3 0-9.8 0.3-9.8 4.6 0 2.4 2.5 3.5 4.7 3.5 3.9 0 7.5-2 7.5-6v-2.1h-2.4z"></path>
        <path d="m155 2.2h9.9v43.7h-9.9v-43.7z"></path>
        <path d="m136.6 2.2h9.9v43.7h-9.9v-43.7z"></path>
        <path d="m111.6 13c9.9 0 17.8 6.6 17.8 16.8s-7.9 16.8-17.8 16.8c-9.9 0-17.8-6.6-17.8-16.8-0.1-10.2 7.9-16.8 17.8-16.8zm0 25c4.9 0 7.9-3.3 7.9-8.1s-3-8.1-7.9-8.1-7.9 3.3-7.9 8.1c-0.1 4.8 2.9 8.1 7.9 8.1z"></path>
        <path d="m55.8 45.9v-42.1l9.9-3.5v18.1h0.1c1.5-2.8 4.9-5.3 9.4-5.3 8.8 0 11.4 6.7 11.4 13.1v19.7h-9.9v-17.5c0-3.5-1-6.7-5.1-6.7-4 0-6 3.2-6 6.8v17.4h-9.8z"></path>
        <path d="m17.2 17.6l9-3.2v3.6h0.1c1.4-2.7 4.7-6.1 9.8-6.1 8.8 0 11.3 6.6 11.3 13v41.3l-9.7-4v-34.9c0-3.5-1-6.7-5.1-6.7-4 0-6 3.2-6 6.8v30.2l-9.4-3.9v-36.1z"></path>
        <path d="m9.3 20.5v30l-9.1-3.7v-23l9.1-3.3z"></path>
        <path d="m103.1 76.8v-6.8c0-1.7-0.3-2.3-1.6-2.3s-2 1.2-2 3.3v5.8h-3.2v-15h3.1v5.7c0.6-1.3 1.7-2.2 3.6-2.2 2.2 0 3.3 1 3.3 3.2v8.2h-3.2v0.1z"></path>
        <path d="m115.4 65.3c3.3 0 5.5 2.4 5.5 6.1 0 3.9-2.2 5.6-5.5 5.6-3.4 0-5.5-1.8-5.5-5.6 0-4 2.3-6.1 5.5-6.1zm0 9.5c1.7 0 2.3-1.1 2.3-3.5 0-2.9-0.8-3.9-2.3-3.9-1.4 0-2.3 1.1-2.3 3.9-0.1 2.4 0.7 3.5 2.3 3.5z"></path>
        <path d="m128.7 80.4c-3.5 0-5.2-0.9-5.2-2.3 0-0.8 0.6-1.5 2.4-1.8-1.8-0.1-2.3-1.2-2.3-2 0-1 0.8-1.9 2.5-2.2-1.3-0.6-2.1-1.8-2.1-3.1 0-2.2 1.9-3.6 4.8-3.6 1 0 1.3 0.1 1.7 0.2l0.3-2.1h2.9l-1.6 2.7c0.9 0.5 1.6 1.3 1.6 2.8 0 2-2 3.6-4.4 3.6-1 0-1.6-0.1-2-0.2-0.9 0.2-1.2 0.5-1.2 0.9s0.3 0.5 2 0.4l2.1-0.1c2.9-0.2 4.4 1.1 4.4 3.4 0 1.9-1.7 3.4-5.9 3.4zm1.1-4.1c-0.9 0-1.8 0.1-2.5 0.2-0.9 0.3-1.5 0.8-1.5 1.2 0 0.8 0.6 1.1 2.9 1.1 2.6 0 3.5-0.6 3.5-1.4 0.1-1-0.5-1.1-2.4-1.1zm-0.9-9.3c-1.2 0-1.8 0.7-1.8 2 0 1.4 0.7 2 1.8 2 1.2 0 1.8-0.5 1.8-2 0-1.3-0.6-2-1.8-2z"></path>
        <path d="m142.3 77c-3.2 0-5.3-1.6-5.3-5.7s2.3-6.1 5.2-6.1c2.6 0 4.5 1.5 4.7 4.6 0.1 0.8 0.1 1.5 0 2h-6.8c0 2.2 0.9 3.1 2.2 3.1s1.8-0.5 1.9-1.4v-0.4l2.9 0.2v0.7c-0.1 1.3-1.4 3-4.8 3zm1.7-7.9c-0.2-1.1-0.8-1.7-1.8-1.7-1.3 0-2 0.9-2.1 2.6h3.9c0.1-0.2 0.1-0.6 0-0.9z"></path>
        <path d="m155.1 77c-3.1 0-4.9-1.3-4.9-2.9 0-0.5 0.1-0.9 0.3-1.2l2.8 0.2c-0.1 0.3-0.1 0.5-0.1 0.7 0 0.7 0.6 1.3 1.9 1.3 1.1 0 1.6-0.5 1.6-1.3 0-0.6-0.3-1.2-1.7-1.6l-1.7-0.5c-1.8-0.5-2.9-1.3-2.9-3.2 0-2 2-3.3 4.5-3.3 2.9 0 4.5 1.2 4.5 2.7 0 0.3-0.1 0.5-0.2 0.7l-3 0.2c0.1-0.2 0.1-0.4 0.1-0.6 0-0.6-0.5-1-1.5-1-1.1 0-1.4 0.6-1.4 1.1 0 0.4 0.3 0.8 1.5 1.1l1.8 0.5c2.1 0.6 3.1 1.6 3.1 3.5 0.1 2.2-1.4 3.6-4.7 3.6z"></path>
        <path d="m168.2 77c-3.3 0-5.2-1.4-5.2-5.4 0-4.5 2.1-6.3 5.4-6.3 3 0 4.4 1.6 4.4 3.3 0 0.4 0 0.7-0.1 0.9l-3 0.1c0.1-0.2 0.1-0.4 0.1-0.7 0-1-0.5-1.6-1.6-1.6-1.4 0-2.1 0.9-2.1 3.6 0 3 0.7 3.9 2 3.9s1.8-0.5 1.8-1.8c0-0.3 0-0.6-0.1-0.7l2.8 0.1c0.1 0.4 0.2 0.8 0.2 1.4 0.1 1.5-1.6 3.2-4.6 3.2z"></path>
        <path d="m183 76.8v-6.8c0-1.7-0.3-2.3-1.6-2.3s-2 1.2-2 3.3v5.8h-3.2v-15h3.1v5.7c0.6-1.3 1.7-2.2 3.6-2.2 2.2 0 3.3 1 3.3 3.2v8.2h-3.2v0.1z"></path>
        <path d="m195.2 65.3c3.3 0 5.5 2.4 5.5 6.1 0 3.9-2.2 5.6-5.5 5.6-3.4 0-5.5-1.8-5.5-5.6 0-4 2.3-6.1 5.5-6.1zm0 9.5c1.7 0 2.3-1.1 2.3-3.5 0-2.9-0.8-3.9-2.3-3.9-1.4 0-2.3 1.1-2.3 3.9 0 2.4 0.8 3.5 2.3 3.5z"></path>
        <path d="m209.2 65.3c3.3 0 5.5 2.4 5.5 6.1 0 3.9-2.2 5.6-5.5 5.6-3.4 0-5.5-1.8-5.5-5.6 0-4 2.3-6.1 5.5-6.1zm0 9.5c1.7 0 2.3-1.1 2.3-3.5 0-2.9-0.8-3.9-2.3-3.9-1.4 0-2.3 1.1-2.3 3.9 0 2.4 0.8 3.5 2.3 3.5z"></path>
        <path d="m218.1 76.8v-15h3.2v14.9l-3.2 0.1z"></path>
    </clipPath>
</defs>

<g clip-path="url(#svg_logo__mask)">
    <g class="svg_logo__group">
        <rect width="350" height="80" fill="#000"></rect>
        <rect class="svg_logo__fill" y="80" width="350" height="175"></rect>
    </g>
</g>

</svg>