<svg xmlns="http://www.w3.org/2000/svg" viewBox="0 0 459.8 148.78"><defs><style>.cls-1{fill-rule:evenodd;}</style></defs><g id="Layer_2" data-name="Layer 2"><g id="Layer_1-2" data-name="Layer 1"><g id="Page-1"><g id="Artboard-Copy-2"><g id="Group"><g id="Group-Copy-2"><path id="Combined-Shape" class="cls-1" d="M240.09,0a48.67,48.67,0,0,1,1.36,97.33V87.8L260,69.28a5.68,5.68,0,1,0-3.38-5.19h0v.09a5.86,5.86,0,0,0,.28,1.69h0L241.44,81.3V34.88a5.68,5.68,0,1,0-8.12-5.14h0v.1A5.69,5.69,0,0,0,236.85,35h0V62.53L223.24,49.84a5.68,5.68,0,1,0-5.32,3.7,5.47,5.47,0,0,0,2.11-.41h0L236.5,68.49l.35-.37V97.24A48.67,48.67,0,0,1,240.09,0Z"/><rect id="Rectangle" x="236.85" y="97.35" width="4.6" height="24.88"/></g><path id="ventures" d="M177.79,148.45,182.71,136h-1.65L177,146.69,172.84,136H171l5.12,12.49Zm18.52.33a7.48,7.48,0,0,0,3.07-.62,5.48,5.48,0,0,0,2.34-2.06h0l-1.19-1a4.31,4.31,0,0,1-1.78,1.62,5.21,5.21,0,0,1-2.41.6,4.55,4.55,0,0,1-2.34-.54,4.76,4.76,0,0,1-2.19-2.86,5.8,5.8,0,0,1-.2-1.31H202.1v-1.13a6.35,6.35,0,0,0-.38-2.14,5.45,5.45,0,0,0-3-3.2,5.92,5.92,0,0,0-2.53-.5,6.12,6.12,0,0,0-4.49,1.87,6.3,6.3,0,0,0-1.29,2.07,7.11,7.11,0,0,0-.46,2.6,7.77,7.77,0,0,0,.44,2.66,6,6,0,0,0,1.29,2.08,5.71,5.71,0,0,0,2,1.37A6.72,6.72,0,0,0,196.31,148.78Zm4.17-7.63h-8.87a3.4,3.4,0,0,1,.22-.9,4.58,4.58,0,0,1,.73-1.37,4.69,4.69,0,0,1,1.39-1.24,4.12,4.12,0,0,1,2.2-.54,4.35,4.35,0,0,1,1.69.32,4.46,4.46,0,0,1,1.38.88,4.13,4.13,0,0,1,.92,1.28,3.63,3.63,0,0,1,.34,1.57Zm12.27,7.3v-6.24a6.93,6.93,0,0,1,.34-2.26,4.7,4.7,0,0,1,.92-1.6,3.61,3.61,0,0,1,1.38-.94,4.57,4.57,0,0,1,1.69-.31,3.28,3.28,0,0,1,1.58.33,2.52,2.52,0,0,1,1,.91,3.84,3.84,0,0,1,.47,1.28,8,8,0,0,1,.14,1.48h0v7.35h1.62V141a10,10,0,0,0-.2-2,4.59,4.59,0,0,0-.73-1.72,3.75,3.75,0,0,0-1.45-1.2,5.28,5.28,0,0,0-2.38-.46,4.7,4.7,0,0,0-2.65.74,4.31,4.31,0,0,0-1.62,1.77h-.08a4,4,0,0,1-.07-.84c0-.43,0-.88,0-1.35H211c0,.16,0,.39,0,.69s0,.62,0,1,0,.68.05,1,0,.62,0,.86h0v9Zm23,.33a4.91,4.91,0,0,0,1.06-.14,9,9,0,0,0,1-.3h0l-.13-1.46a6.51,6.51,0,0,1-.91.32,3.77,3.77,0,0,1-.93.12,1.6,1.6,0,0,1-1.73-1.76h0v-8.14h3.57V136h-3.57v-3.6h-1.63V136h-2.7v1.46h2.7v8.14a4.26,4.26,0,0,0,.18,1.26,2.83,2.83,0,0,0,.55,1,2.67,2.67,0,0,0,1,.69A3.88,3.88,0,0,0,235.71,148.78Zm14.9,0a4.7,4.7,0,0,0,2.65-.75,4.25,4.25,0,0,0,1.62-1.77H255a5.33,5.33,0,0,1,.06.84c0,.43,0,.88,0,1.35h1.63q0-.24,0-.69c0-.29,0-.61,0-1s0-.68,0-1,0-.62,0-.85h0v-9h-1.62v6.25a6.66,6.66,0,0,1-.34,2.25,4.61,4.61,0,0,1-.92,1.6,3.75,3.75,0,0,1-1.38.95,4.74,4.74,0,0,1-1.69.31A3.3,3.3,0,0,1,249,147a2.52,2.52,0,0,1-.95-.91,4,4,0,0,1-.47-1.28,8,8,0,0,1-.13-1.48h0V136h-1.63v7.44a11,11,0,0,0,.19,2,4.38,4.38,0,0,0,.72,1.71,3.82,3.82,0,0,0,1.46,1.21A5.5,5.5,0,0,0,250.61,148.78Zm17.44-.33v-6.81a5.63,5.63,0,0,1,.25-1.72,4,4,0,0,1,.74-1.39,3.33,3.33,0,0,1,1.27-.93,4.43,4.43,0,0,1,1.83-.34,1.81,1.81,0,0,1,.62.11h0l.19-1.6a4.46,4.46,0,0,0-.48-.09,2.42,2.42,0,0,0-.47,0,3.94,3.94,0,0,0-2.38.7,5.46,5.46,0,0,0-1.59,1.81,4,4,0,0,1-.07-.84c0-.43,0-.88,0-1.35H266.3c0,.16,0,.39,0,.69s0,.62,0,1,0,.68,0,1,0,.62,0,.86h0v9Zm17.93.33a7.52,7.52,0,0,0,3.07-.62,5.48,5.48,0,0,0,2.34-2.06h0l-1.19-1a4.34,4.34,0,0,1-1.79,1.62,5.14,5.14,0,0,1-2.4.6,4.5,4.5,0,0,1-2.34-.54,4.71,4.71,0,0,1-1.45-1.3,4.54,4.54,0,0,1-.74-1.56,5.28,5.28,0,0,1-.2-1.31h10.49v-1.13a6.35,6.35,0,0,0-.38-2.14,5.69,5.69,0,0,0-1.12-1.88,5.52,5.52,0,0,0-1.84-1.32,5.92,5.92,0,0,0-2.53-.5,6.1,6.1,0,0,0-2.52.5,6.18,6.18,0,0,0-2,1.37,6.32,6.32,0,0,0-1.3,2.07,7.32,7.32,0,0,0-.46,2.6,7.54,7.54,0,0,0,.45,2.66,6.12,6.12,0,0,0,1.28,2.08,5.8,5.8,0,0,0,2,1.37A6.8,6.8,0,0,0,286,148.78Zm4.17-7.63h-8.87a3.69,3.69,0,0,1,.21-.9,5.09,5.09,0,0,1,.73-1.37,4.82,4.82,0,0,1,1.39-1.24,4.18,4.18,0,0,1,2.21-.54,4.38,4.38,0,0,1,1.69.32,4.46,4.46,0,0,1,1.38.88,4.3,4.3,0,0,1,.92,1.28,3.79,3.79,0,0,1,.34,1.57Zm14.27,7.63a5.66,5.66,0,0,0,1.71-.25,4.26,4.26,0,0,0,1.44-.73,3.32,3.32,0,0,0,1-1.2,3.6,3.6,0,0,0,.37-1.69,3.05,3.05,0,0,0-.56-2,3.59,3.59,0,0,0-1.36-1,7,7,0,0,0-1.79-.53,17.66,17.66,0,0,1-1.78-.39,4.46,4.46,0,0,1-1.37-.64,1.43,1.43,0,0,1-.55-1.24,1.44,1.44,0,0,1,.26-.87,2.19,2.19,0,0,1,.63-.62,3.28,3.28,0,0,1,.85-.38,3.33,3.33,0,0,1,.91-.13,3.24,3.24,0,0,1,1.8.44,3.53,3.53,0,0,1,1.15,1.31h0l1.46-.86a4,4,0,0,0-1.75-1.79,5.8,5.8,0,0,0-2.66-.56,5.72,5.72,0,0,0-1.54.21,4.58,4.58,0,0,0-1.37.66,3.56,3.56,0,0,0-1,1.13,3.12,3.12,0,0,0-.38,1.59,2.75,2.75,0,0,0,.55,1.84,3.85,3.85,0,0,0,1.37,1,7.41,7.41,0,0,0,1.78.55,15.33,15.33,0,0,1,1.79.41,4.23,4.23,0,0,1,1.36.68,1.55,1.55,0,0,1,.56,1.3,1.82,1.82,0,0,1-.26,1,2.35,2.35,0,0,1-.66.71,2.94,2.94,0,0,1-.92.46,3.42,3.42,0,0,1-1,.17,4.49,4.49,0,0,1-2.11-.53,3.44,3.44,0,0,1-1.51-1.53h0l-1.44,1a4.58,4.58,0,0,0,2.07,1.92A7,7,0,0,0,304.42,148.78Z"/><path id="Light" d="M32.12,117.63v-4.87H5.35V60.19H0v57.44ZM42.43,69a3.59,3.59,0,1,0-2.6-1A3.53,3.53,0,0,0,42.43,69Zm2.43,48.68V80.15H40v37.48ZM76.34,137.1a27.62,27.62,0,0,0,6.32-.82,16.71,16.71,0,0,0,6.53-3.16,17.82,17.82,0,0,0,5.07-6.65q2-4.31,2-11.28h0v-35H91.42v6.33h-.16a14.83,14.83,0,0,0-5.72-5.36,17.54,17.54,0,0,0-8.47-2,19.77,19.77,0,0,0-7.79,1.55,20.64,20.64,0,0,0-6.37,4.13,19.34,19.34,0,0,0-4.3,6.09,18.4,18.4,0,0,0,0,14.92,19.83,19.83,0,0,0,10.67,10.27,20.28,20.28,0,0,0,7.79,1.5,17.54,17.54,0,0,0,8.47-1.95,14.88,14.88,0,0,0,5.72-5.35h.16v5.19c0,.7,0,1.62-.08,2.76a20.52,20.52,0,0,1-.52,3.61,18.24,18.24,0,0,1-1.38,3.81,12.07,12.07,0,0,1-6.82,6,17.71,17.71,0,0,1-6.28,1,20.39,20.39,0,0,1-8.28-1.7,15.5,15.5,0,0,1-6.49-5.35h0l-3.81,3.57a17.29,17.29,0,0,0,3.45,3.32A20.79,20.79,0,0,0,65.63,135a26.74,26.74,0,0,0,5.15,1.54A29.19,29.19,0,0,0,76.34,137.1Zm.4-23.85a14.53,14.53,0,0,1-5.8-1.18,15,15,0,0,1-4.7-3.16,15.14,15.14,0,0,1-3.17-4.71,15,15,0,0,1,0-11.6,14.85,14.85,0,0,1,7.87-7.87,15,15,0,0,1,11.6,0,15.14,15.14,0,0,1,4.71,3.17,15,15,0,0,1,3.16,4.7,14.84,14.84,0,0,1,0,11.6,14.68,14.68,0,0,1-7.87,7.87A14.49,14.49,0,0,1,76.74,113.25Zm36.34,4.38V98.89a20.32,20.32,0,0,1,1-6.78,13.52,13.52,0,0,1,2.76-4.78A10.89,10.89,0,0,1,121,84.49a13.91,13.91,0,0,1,5.07-.93,9.7,9.7,0,0,1,4.75,1,7.44,7.44,0,0,1,2.84,2.72,11.8,11.8,0,0,1,1.42,3.85,23.83,23.83,0,0,1,.4,4.42h0v22.07h4.87V95.32a29.11,29.11,0,0,0-.61-6,13.47,13.47,0,0,0-2.19-5.15,11.52,11.52,0,0,0-4.34-3.61,16,16,0,0,0-7.14-1.38,14.16,14.16,0,0,0-8,2.24,13,13,0,0,0-4.86,5.31h-.17V56.3h-4.86v61.33Zm52.65,1a14.58,14.58,0,0,0,3.17-.41,27.37,27.37,0,0,0,3.16-.89h0l-.41-4.38a17.3,17.3,0,0,1-2.71.93,10.94,10.94,0,0,1-2.8.37,5.16,5.16,0,0,1-3.82-1.38A5.26,5.26,0,0,1,161,109h0V84.53h10.7V80.15H161V69.36h-4.87V80.15H148v4.38h8.11V109a12.68,12.68,0,0,0,.53,3.77,8,8,0,0,0,1.66,3,7.88,7.88,0,0,0,3,2.07A11.71,11.71,0,0,0,165.73,118.6Z"/><path id="Tree" d="M326.35,117.63V65.06H346V60.19H301.37v4.87H321v52.57Zm32,0V97.18A17.81,17.81,0,0,1,359,92a11.7,11.7,0,0,1,2.24-4.18,10.2,10.2,0,0,1,3.81-2.79,13.45,13.45,0,0,1,5.47-1,5.81,5.81,0,0,1,1.87.33h0l.57-4.79c-.49-.11-1-.2-1.42-.28a8.33,8.33,0,0,0-1.42-.13A11.92,11.92,0,0,0,363,81.28a16.71,16.71,0,0,0-4.79,5.44,13,13,0,0,1-.2-2.52c0-1.29-.07-2.65-.12-4H353c0,.48,0,1.17.08,2.07s.1,1.85.12,2.88.07,2,.13,3,.08,1.85.08,2.55h0v26.94Zm39,1a22.2,22.2,0,0,0,9.21-1.87,16.31,16.31,0,0,0,7-6.16h0l-3.57-3a13.06,13.06,0,0,1-5.36,4.86,15.64,15.64,0,0,1-7.22,1.79,13.55,13.55,0,0,1-7-1.62,14.06,14.06,0,0,1-4.34-3.9,13.84,13.84,0,0,1-2.23-4.66,16.49,16.49,0,0,1-.61-3.94h31.47V96.7a18.75,18.75,0,0,0-1.13-6.41,16.84,16.84,0,0,0-3.37-5.64,16.58,16.58,0,0,0-5.51-4,18,18,0,0,0-7.59-1.51,18.29,18.29,0,0,0-13.47,5.64A18.73,18.73,0,0,0,379.73,91a21.4,21.4,0,0,0-1.38,7.79,22.9,22.9,0,0,0,1.34,8,18,18,0,0,0,3.85,6.24,17.51,17.51,0,0,0,6,4.1A20,20,0,0,0,397.33,118.6Zm12.5-22.88H383.22a10.53,10.53,0,0,1,.65-2.71,14.7,14.7,0,0,1,2.19-4.1,14.4,14.4,0,0,1,4.18-3.73,12.4,12.4,0,0,1,6.61-1.62,13.34,13.34,0,0,1,5.07,1,13,13,0,0,1,4.13,2.64A12.26,12.26,0,0,1,408.81,91a11,11,0,0,1,1,4.7Zm32.61,22.88a22.19,22.19,0,0,0,9.2-1.87,16.31,16.31,0,0,0,7-6.16h0l-3.57-3a13,13,0,0,1-5.35,4.86,15.67,15.67,0,0,1-7.22,1.79,13.56,13.56,0,0,1-7-1.62,14.11,14.11,0,0,1-6.57-8.56,16.49,16.49,0,0,1-.61-3.94H459.8V96.7a18.76,18.76,0,0,0-1.14-6.41,17,17,0,0,0-3.36-5.64,16.63,16.63,0,0,0-5.52-4,18,18,0,0,0-7.59-1.51,18.24,18.24,0,0,0-13.46,5.64,18.6,18.6,0,0,0-3.9,6.21,21.4,21.4,0,0,0-1.38,7.79,22.9,22.9,0,0,0,1.34,8,18,18,0,0,0,3.86,6.24,17.37,17.37,0,0,0,6,4.1A20.06,20.06,0,0,0,442.44,118.6Zm12.49-22.88H428.32A11,11,0,0,1,429,93a14.7,14.7,0,0,1,2.19-4.1,14.4,14.4,0,0,1,4.18-3.73A12.43,12.43,0,0,1,442,83.56a13.26,13.26,0,0,1,5.07,1,13,13,0,0,1,4.14,2.64A12.58,12.58,0,0,1,453.92,91a11.15,11.15,0,0,1,1,4.7Z"/></g></g></g></g></g></svg>