<?xml version="1.0"?>
<svg xmlns="http://www.w3.org/2000/svg" viewBox="0 0 300 180">
  <path d="M249 98v4h5v20c0 4.2.37 4.4 1.47 5.9A5.85 5.85 0 0 0 259 130a17.94 17.94 0 0 0 4 .3 38.4 38.4 0 0 0 4-.4v-4.6a11.35 11.35 0 0 1-3.15.4c-2.2 0-3.85-1.1-3.85-3.4V102h7v-4h-7v-9.18l-6 1.9V98zm-11 31v-27h7v-5h-7v-4.68c0-3.5 1.7-4.4 5.1-4.4a28.26 28.26 0 0 1 2.9.2v-5a16.28 16.28 0 0 0-4.2-.6c-4.5 0-9.8 1.8-9.8 8.8V97h-6v5h6v27zm-19 0V84h-6v45h6m-13-14.48v-3c0-8.8-4.68-14.8-14.18-15-10.1 0-14.79 7.8-14.79 17.1S181.09 130 191.19 130c7.6 0 13.16-3 14.06-11h-6.3c-.7 5-3 6.9-7.7 6.9-6.1 0-8.4-5.9-8-10.9H206zM183.25 110s3-9.4 8-9.4c5.8 0 8.2 4.4 8.1 9.4zm-43.1-21h9.2c6.4 0 9.8 2.61 11.6 5.21a20.55 20.55 0 0 1 3.5 12.2 20.82 20.82 0 0 1-3.5 12.29c-1.8 2.6-5.2 5.29-11.6 5.29H140V89zm-6.3 40H149c4.2 0 8.7-.29 12.4-2.69 6.6-4.2 9.7-11.35 9.7-20s-3-16-9.7-20.28c-3.7-2.3-8.2-2-12.4-3h-15v46.22zM109 84v27.92c-1 5.8-3.5 9.5-9.5 9.5s-9.5-3.7-9.5-9.5V84H78v28.52c0 12.7 10 17.7 21.5 17.7s21.5-5 21.5-17.7V84zm-64 45h12V92h15v-8H31v8h14v37m30.15-67.68c-3.1 1-6.3.2-6.3-3.9 0-6.3 14.8-11.6 16.8-17.1.5-1.4.5-2.5-.1-2.5s-.1.7-1.1 1.7c-6.1 6.1-16.4 6.1-24.2 9.6-5.2 2.3-20.3 9.4-16.8 25.3.2.8.6 3.3 1.1 3.3s.5-1.5.5-3.3c-.1-9.5 11.1-12.1 14.7-18.3.4-.7 1.2-1.8 1.4-1.3a2.75 2.75 0 0 1-.1 1.2c-1.1 5.1-6.4 8.3-4.9 12 1.9 4.7 7.6 1.2 9.3-1.8.5-.8.7-1.4 1-1.3s.2 1 .1 1.9c-.9 5.5-2.2 8.5-6.2 11.6-1.3 1-3.3 1.2-3 2 .1.2.9.2 1.6.1 10.6-.7 19.5-13.2 21.9-21.4.2-.6.3-1.1.1-1.3s-.8.3-1.3.7a12.06 12.06 0 0 1-4.5 2.8"/>
</svg>
